<?xml version="1.0" encoding="iso-8859-1"?>
<svg version="1.1" id="Layer_1" xmlns="http://www.w3.org/2000/svg" xmlns:xlink="http://www.w3.org/1999/xlink" x="0px" y="0px"
     viewBox="0 0 512 512" style="enable-background:new 0 0 512 512;" xml:space="preserve">
		<path d="M356.848,186.47v-85.622C356.848,45.239,311.609,0,256,0S155.152,45.239,155.152,100.848v85.622
			c-46.815,32.194-77.576,86.12-77.576,147.105C77.576,431.959,157.618,512,256,512c98.385,0,178.424-80.041,178.424-178.424
			C434.424,272.59,403.664,218.664,356.848,186.47z M279.273,330.76v33.846c0,12.853-10.418,23.273-23.273,23.273
			c-12.851,0-23.273-10.42-23.273-23.273V330.76c-4.813-5.468-7.758-12.617-7.758-20.457c0-17.109,13.922-31.03,31.03-31.03
			s31.03,13.922,31.03,31.03C287.03,318.143,284.086,325.291,279.273,330.76z M310.303,163.61
			c-17.13-5.486-35.376-8.459-54.303-8.459s-37.173,2.973-54.303,8.459v-62.762c0-29.943,24.36-54.303,54.303-54.303
			s54.303,24.36,54.303,54.303V163.61z"/>
</svg>
