<?xml version="1.0" encoding="iso-8859-1"?>
<svg version="1.1" id="Layer_1" xmlns="http://www.w3.org/2000/svg" xmlns:xlink="http://www.w3.org/1999/xlink" x="0px" y="0px"
     viewBox="0 0 512 512" style="enable-background:new 0 0 512 512;" xml:space="preserve">
		<path d="M294.788,155.152c-18.929,0-37.173,2.973-54.303,8.459v-62.762C240.485,45.241,195.244,0,139.636,0
			C84.027,0,38.788,45.241,38.788,100.848v98.335c0,12.853,10.42,23.273,23.273,23.273c12.853,0,23.273-10.42,23.273-23.273v-98.335
			c0-29.943,24.359-54.303,54.303-54.303c29.943,0,54.303,24.36,54.303,54.303v85.622c-46.815,32.194-77.576,86.12-77.576,147.105
			c0,98.383,80.04,178.424,178.424,178.424c98.382,0,178.424-80.041,178.424-178.424S393.169,155.152,294.788,155.152z
			 M318.061,330.76v33.846c0,12.853-10.422,23.273-23.273,23.273c-12.854,0-23.273-10.42-23.273-23.273V330.76
			c-4.813-5.468-7.758-12.617-7.758-20.457c0-17.11,13.92-31.03,31.03-31.03c17.109,0,31.03,13.92,31.03,31.03
			C325.818,318.143,322.873,325.291,318.061,330.76z"/>
</svg>
